Coordinates
version=1
nRows=16
nColumns=40
inDegrees=yes

Units are S.I. units (second, meters, Newtons, ...)
If the header above contains a line with 'inDegrees', this indicates whether rotational values are in degrees (yes) or radians (no).

endheader
time	pelvis_tilt	pelvis_list	pelvis_rotation	pelvis_tx	pelvis_ty	pelvis_tz	hip_flexion_r	hip_adduction_r	hip_rotation_r	knee_angle_r	knee_angle_r_beta	ankle_angle_r	subtalar_angle_r	mtp_angle_r	hip_flexion_l	hip_adduction_l	hip_rotation_l	knee_angle_l	knee_angle_l_beta	ankle_angle_l	subtalar_angle_l	mtp_angle_l	lumbar_extension	lumbar_bending	lumbar_rotation	arm_flex_r	arm_add_r	arm_rot_r	elbow_flex_r	pro_sup_r	wrist_flex_r	wrist_dev_r	arm_flex_l	arm_add_l	arm_rot_l	elbow_flex_l	pro_sup_l	wrist_flex_l	wrist_dev_l
     12.03300000	      7.20963857	      5.39025065	      6.56700736	      0.05330732	      1.32186642	     -0.00483992	     35.34832733	    -19.28302461	    -15.46768925	     45.07049204	      0.78662848	    -21.99712562	    -18.21134283	      0.00000000	     42.22253563	     -9.93424194	     -5.92914531	     97.80230393	      1.70697222	    -14.60495741	     -4.73327830	      0.00000000	    -62.18320448	     -1.71849888	     -6.21119813	     50.90047053	     12.22713246	    -56.66582174	     42.62090403	     77.68186666	      0.00000000	      0.00000000	     62.86547635	     15.53227494	    -64.98344422	     46.59253854	     63.85021976	      0.00000000	      0.00000000
     12.05000000	      6.73272676	      6.60202693	      7.16950075	      0.05273233	      1.32093092	     -0.00444888	     31.21808006	    -19.59345329	    -17.19565125	     39.96008860	      0.69743512	    -24.55823629	    -17.30173434	      0.00000000	     46.37482797	     -9.53503306	     -5.87628593	    102.03585325	      1.78086159	    -13.03126480	     -4.93781361	      0.00000000	    -61.73568089	     -2.52520830	     -7.39741186	     50.33385753	     11.93726955	    -56.71700793	     42.71047222	     77.61266856	      0.00000000	      0.00000000	     62.82303294	     15.69426965	    -64.21774016	     46.45839933	     64.05235156	      0.00000000	      0.00000000
     12.06700000	      6.40532016	      7.27764460	      8.40438217	      0.05235179	      1.32037096	     -0.00477885	     26.97981114	    -19.90334706	    -20.15509170	     36.08546678	      0.62981021	    -26.64206928	    -17.42992436	      0.00000000	     50.58765918	     -8.87524496	     -5.27372510	    104.93294043	      1.83142530	    -11.43866644	     -5.59244117	      0.00000000	    -61.53965736	     -2.32550510	     -8.36840082	     49.91413598	     11.54144524	    -56.46170272	     42.73494470	     77.51370034	      0.00000000	      0.00000000	     62.74710886	     15.85109656	    -63.29394466	     46.27883213	     64.29966296	      0.00000000	      0.00000000
     12.08300000	      5.84222139	      8.16066605	      8.84690066	      0.05207138	      1.31951118	     -0.00433501	     23.91768154	    -20.16448711	    -21.70106104	     33.63533293	      0.58704730	    -28.61622567	    -17.42531504	      0.00000000	     54.61762133	     -8.49936073	     -5.72479371	    106.57758489	      1.86012977	     -9.20840914	     -6.49583282	      0.00000000	    -61.26507128	     -2.85073073	     -9.12802081	     49.60096986	     11.16764211	    -56.26498090	     42.82225691	     77.36549295	      0.00000000	      0.00000000	     62.81621332	     16.03305326	    -62.56537158	     45.97176963	     64.41615593	      0.00000000	      0.00000000
     12.10000000	      5.38840156	      8.77505130	      9.06432878	      0.05227861	      1.31874229	     -0.00385703	     21.61282544	    -20.27316232	    -22.79083987	     32.68319261	      0.57042932	    -29.81922142	    -17.54568503	      0.00000000	     58.02547025	     -8.31296598	     -6.20474016	    106.89536436	      1.86567606	     -7.34008367	     -7.10620600	      0.00000000	    -61.09680024	     -3.23160430	     -9.63294424	     49.47633582	     10.85488690	    -56.06827745	     42.80043788	     77.11528665	      0.00000000	      0.00000000	     62.84753078	     16.21238517	    -62.10141638	     45.76547089	     64.40712991	      0.00000000	      0.00000000
     12.11700000	      5.15580632	      9.21452696	      8.84546319	      0.05300721	      1.31836963	     -0.00286335	     20.06485578	    -20.27133502	    -23.21654100	     33.34036630	      0.58189917	    -29.81234260	    -17.72481595	      0.00000000	     60.61415144	     -8.48833293	     -6.79165488	    105.71009394	      1.84498919	     -6.43515700	     -7.10325902	      0.00000000	    -61.22002692	     -3.63256712	     -9.83700454	     49.62681326	     10.60005990	    -56.01539703	     42.72911472	     76.95555465	      0.00000000	      0.00000000	     62.94579572	     16.49401935	    -61.97171040	     45.80149002	     64.35113313	      0.00000000	      0.00000000
     12.13300000	      4.71786752	      9.74092556	      8.62555685	      0.05373996	      1.31784301	     -0.00231439	     19.77092885	    -20.71957732	    -22.89628690	     35.87713736	      0.62617417	    -29.40188478	    -18.53979043	      0.00000000	     62.71029420	     -8.29728053	     -7.51332361	    103.19604910	      1.80111083	     -5.52607391	     -6.69670540	      0.00000000	    -61.21406156	     -3.92469158	    -10.32377534	     50.07805271	     10.44749836	    -55.91769119	     42.41563963	     76.89762240	      0.00000000	      0.00000000	     63.09774281	     16.70424814	    -62.35475523	     45.97447713	     64.32855823	      0.00000000	      0.00000000
     12.15000000	      4.73178099	      9.65277765	      8.07121169	      0.05459050	      1.31809338	     -0.00162517	     19.94177592	    -20.65033956	    -22.15563035	     39.70128888	      0.69291821	    -28.17981064	    -19.13311460	      0.00000000	     63.35577728	     -8.52075414	     -7.83168544	     99.62088064	      1.73871237	     -4.96429434	     -6.51133969	      0.00000000	    -61.51408335	     -4.04589866	    -10.06370568	     50.54184787	     10.36097393	    -55.84302836	     42.28059684	     76.82112569	      0.00000000	      0.00000000	     63.30581331	     16.82106833	    -62.65026694	     46.11707710	     64.29395870	      0.00000000	      0.00000000
     12.16700000	      4.87025719	      8.96675027	      7.35051733	      0.05520014	      1.31850871	     -0.00147229	     21.16808965	    -20.23146770	    -20.93078081	     45.26077338	      0.78994952	    -26.47423693	    -19.70455780	      0.00000000	     62.67776029	     -8.95915156	     -7.79553380	     94.86296726	      1.65567112	     -4.11692823	     -6.13165194	      0.00000000	    -61.78181835	     -3.94985524	     -9.20920384	     51.01017250	     10.41377696	    -55.65702774	     42.33573390	     76.70546141	      0.00000000	      0.00000000	     63.54747543	     16.76509230	    -62.88464278	     46.19880965	     64.25785707	      0.00000000	      0.00000000
     12.18300000	      5.08255958	      7.81443507	      6.36425312	      0.05579013	      1.31896143	     -0.00147583	     23.29059927	    -19.47065227	    -19.31161919	     52.09494159	      0.90922825	    -24.76435323	    -20.00595204	      0.00000000	     60.92992260	     -9.63626012	     -7.48960921	     89.06299598	      1.55444252	     -3.38077214	     -5.66025012	      0.00000000	    -62.00243231	     -3.78409545	     -7.85358056	     51.48870890	     10.58535280	    -55.45375787	     42.52076381	     76.77150185	      0.00000000	      0.00000000	     63.77245846	     16.58100612	    -63.18904578	     46.28928894	     64.27810598	      0.00000000	      0.00000000
     12.20000000	      5.47040931	      6.38517587	      5.40124977	      0.05617148	      1.31970763	     -0.00157807	     25.72597193	    -18.54791989	    -17.87967780	     59.21539735	      1.03350365	    -23.31844872	    -20.03523626	      0.00000000	     58.30227985	    -10.48803227	     -7.29875995	     82.93515608	      1.44749154	     -3.46475814	     -5.92666773	      0.00000000	    -62.28632942	     -3.39076956	     -6.31225171	     51.98181699	     10.83315136	    -55.33550678	     42.67975427	     76.89658593	      0.00000000	      0.00000000	     63.96169088	     16.37907600	    -63.63522807	     46.47895789	     64.25393768	      0.00000000	      0.00000000
     12.21700000	      6.01213026	      4.72634533	      4.38799188	      0.05634049	      1.32066502	     -0.00188522	     28.64871091	    -17.51742562	    -16.52315087	     66.74419029	      1.16490588	    -22.11480228	    -19.69269192	      0.00000000	     54.76496793	    -11.62367999	     -7.57908156	     76.39214459	      1.33329445	     -4.72781305	     -7.10363015	      0.00000000	    -62.56874130	     -2.82626123	     -4.62139064	     52.51858966	     11.24387979	    -55.46711223	     42.79163979	     77.10782165	      0.00000000	      0.00000000	     64.05725014	     16.22267888	    -64.44654820	     46.81085714	     64.20954302	      0.00000000	      0.00000000
     12.23300000	      6.60198029	      2.87696078	      3.32735466	      0.05636485	      1.32155841	     -0.00237094	     32.08743559	    -16.38831587	    -15.27607101	     74.53253778	      1.30083818	    -21.26685263	    -19.16023828	      0.00000000	     50.41605888	    -12.95556076	     -8.26145510	     69.31730510	      1.20981520	     -6.80223714	     -8.42414719	      0.00000000	    -62.80917322	     -2.15083260	     -2.80850655	     53.05814532	     11.76817221	    -55.66528273	     42.82510208	     77.00380290	      0.00000000	      0.00000000	     64.09977497	     16.06418307	    -65.51828317	     47.20935511	     63.98807541	      0.00000000	      0.00000000
     12.25000000	      6.96834100	      1.09573385	      2.24508003	      0.05619976	      1.32197513	     -0.00280959	     35.91702481	    -15.30614940	    -14.10880635	     81.57069146	      1.42367714	    -20.75820942	    -18.69389998	      0.00000000	     45.86851693	    -14.24459616	     -9.28518082	     62.52891005	      1.09133536	     -8.75905563	     -9.16354028	      0.00000000	    -62.85541310	     -1.51729214	     -1.05433730	     53.48158377	     12.24482305	    -55.65489268	     42.94682897	     77.25204219	      0.00000000	      0.00000000	     64.00768686	     15.77835022	    -66.41566913	     47.54166957	     63.94299263	      0.00000000	      0.00000000
     12.26700000	      7.09099713	     -0.54090752	      1.27769390	      0.05580310	      1.32192245	     -0.00325691	     40.11528995	    -14.69310721	    -13.43263141	     87.85842497	      1.53341879	    -20.34647633	    -18.88650354	      0.00000000	     41.00650682	    -15.20338638	    -10.51711136	     55.99062279	      0.97722072	    -10.27474079	     -8.87225902	      0.00000000	    -62.68110077	     -0.80089758	      0.38851805	     53.76688080	     12.75113617	    -55.19808543	     43.05732250	     77.45230740	      0.00000000	      0.00000000	     63.81202231	     15.28506260	    -67.34050679	     47.82110547	     63.83771426	      0.00000000	      0.00000000
     12.28300000	      7.06387040	     -1.95834309	     -0.08417687	      0.05536506	      1.32141137	     -0.00320586	     44.88938165	    -14.11537793	    -12.48825954	     93.51730345	      1.63218485	    -20.21840052	    -19.32778811	      0.00000000	     35.67345661	    -16.01444084	    -12.38043337	     49.57536481	      0.86525334	    -11.52860264	     -8.28496007	      0.00000000	    -62.36215528	     -0.49844306	      1.84805967	     53.93499152	     13.17083716	    -54.58021538	     43.19680792	     77.86761450	      0.00000000	      0.00000000	     63.52225398	     14.72784857	    -68.17565968	     47.96440215	     63.78025085	      0.00000000	      0.00000000
